{
	"asset":{
		"generator":"Khronos glTF Blender I/O v3.5.30",
		"version":"2.0"
	},
	"scene":0,
	"scenes":[
		{
			"extras":{
				"b_export":1,
				"export_path":"C:\\Users\\sahba\\OneDrive\\Desktop\\",
				"s_output":"exporting...",
				"b_renderer":1,
				"b_interactive":0,
				"b_player":0,
				"b_aa":1,
				"b_colorManagement":1,
				"b_physicallyCorrectLights":0,
				"b_settings":1,
				"b_show_env_sky":0,
				"b_cubemap_background":0,
				"b_export_single_model":0,
				"b_cast_shadows":0,
				"s_cubemap_path":"/env/",
				"b_camera_cube":0,
				"s_cubemap_ext":"jpg",
				"b_vr_controllers":1,
				"b_use_default_lights":1,
				"s_project_name":"aframe-prj"
			},
			"name":"Scene",
			"nodes":[
				0
			]
		}
	],
	"nodes":[
		{
			"extras":{
				"ant_landscape":{}
			},
			"mesh":0,
			"name":"TCom_Skies0366_3_masked_S.003",
			"rotation":[
				-0.16770929098129272,
				0.45846545696258545,
				0.38736748695373535,
				0.7820675373077393
			],
			"scale":[
				55.09593200683594,
				55.095943450927734,
				55.09593200683594
			]
		}
	],
	"materials":[
		{
			"alphaMode":"BLEND",
			"doubleSided":true,
			"name":"TCom_Skies0366_3_masked_S",
			"pbrMetallicRoughness":{
				"baseColorTexture":{
					"index":0
				},
				"metallicFactor":0,
				"roughnessFactor":0.5
			}
		}
	],
	"meshes":[
		{
			"name":"TCom_Skies0366_3_masked_S.003",
			"primitives":[
				{
					"attributes":{
						"POSITION":0,
						"TEXCOORD_0":1,
						"NORMAL":2,
						"TANGENT":3
					},
					"indices":4,
					"material":0
				}
			]
		}
	],
	"textures":[
		{
			"sampler":0,
			"source":0
		}
	],
	"images":[
		{
			"bufferView":5,
			"mimeType":"image/png",
			"name":"TCom_Skies0366_3_masked_S"
		}
	],
	"accessors":[
		{
			"bufferView":0,
			"componentType":5126,
			"count":40804,
			"max":[
				2.0200278759002686,
				0.0029841456562280655,
				1.4264755249023438
			],
			"min":[
				-2.081411838531494,
				-1.6133768558502197,
				-0.8893839716911316
			],
			"type":"VEC3"
		},
		{
			"bufferView":1,
			"componentType":5126,
			"count":40804,
			"type":"VEC2"
		},
		{
			"bufferView":2,
			"componentType":5126,
			"count":40804,
			"type":"VEC3"
		},
		{
			"bufferView":3,
			"componentType":5126,
			"count":40804,
			"type":"VEC4"
		},
		{
			"bufferView":4,
			"componentType":5123,
			"count":61206,
			"type":"SCALAR"
		}
	],
	"bufferViews":[
		{
			"buffer":0,
			"byteLength":489648,
			"byteOffset":0,
			"target":34962
		},
		{
			"buffer":0,
			"byteLength":326432,
			"byteOffset":489648,
			"target":34962
		},
		{
			"buffer":0,
			"byteLength":489648,
			"byteOffset":816080,
			"target":34962
		},
		{
			"buffer":0,
			"byteLength":652864,
			"byteOffset":1305728,
			"target":34962
		},
		{
			"buffer":0,
			"byteLength":122412,
			"byteOffset":1958592,
			"target":34963
		},
		{
			"buffer":0,
			"byteLength":708575,
			"byteOffset":2081004
		}
	],
	"samplers":[
		{
			"magFilter":9729,
			"minFilter":9987,
			"wrapS":33071,
			"wrapT":33071
		}
	],
	"buffers":[
		{
			"byteLength":2789580,
			"uri":"data:application/octet-stream;base64,"
		}
	]
}
