{
	"asset":{
		"generator":"Khronos glTF Blender I/O v3.5.30",
		"version":"2.0"
	},
	"scene":0,
	"scenes":[
		{
			"extras":{
				"b_export":1,
				"export_path":"C:\\Users\\sahba\\OneDrive\\Desktop\\",
				"s_output":"exporting...",
				"b_renderer":1,
				"b_interactive":0,
				"b_player":0,
				"b_aa":1,
				"b_colorManagement":1,
				"b_physicallyCorrectLights":0,
				"b_settings":1,
				"b_show_env_sky":0,
				"b_cubemap_background":0,
				"b_export_single_model":0,
				"b_cast_shadows":0,
				"s_cubemap_path":"/env/",
				"b_camera_cube":0,
				"s_cubemap_ext":"jpg",
				"b_vr_controllers":1,
				"b_use_default_lights":1,
				"s_project_name":"aframe-prj"
			},
			"name":"Scene",
			"nodes":[
				0
			]
		}
	],
	"nodes":[
		{
			"extras":{
				"ant_landscape":{}
			},
			"mesh":0,
			"name":"TCom_Skies0366_3_masked_S.002",
			"rotation":[
				0.7071068286895752,
				0,
				0,
				0.7071068286895752
			],
			"scale":[
				47.706573486328125,
				47.70658493041992,
				47.70656967163086
			]
		}
	],
	"materials":[
		{
			"alphaMode":"BLEND",
			"doubleSided":true,
			"name":"TCom_Skies0366_3_masked_S",
			"pbrMetallicRoughness":{
				"baseColorTexture":{
					"index":0
				},
				"metallicFactor":0,
				"roughnessFactor":0.5
			}
		}
	],
	"meshes":[
		{
			"name":"TCom_Skies0366_3_masked_S.004",
			"primitives":[
				{
					"attributes":{
						"POSITION":0,
						"TEXCOORD_0":1,
						"NORMAL":2,
						"TANGENT":3
					},
					"indices":4,
					"material":0
				}
			]
		}
	],
	"textures":[
		{
			"sampler":0,
			"source":0
		}
	],
	"images":[
		{
			"bufferView":5,
			"mimeType":"image/png",
			"name":"TCom_Skies0366_3_masked_S"
		}
	],
	"accessors":[
		{
			"bufferView":0,
			"componentType":5126,
			"count":10812,
			"max":[
				2.2164502143859863,
				0,
				0.4999999403953552
			],
			"min":[
				-2.2164502143859863,
				0,
				-0.5000000596046448
			],
			"type":"VEC3"
		},
		{
			"bufferView":1,
			"componentType":5126,
			"count":10812,
			"type":"VEC2"
		},
		{
			"bufferView":2,
			"componentType":5126,
			"count":10812,
			"type":"VEC3"
		},
		{
			"bufferView":3,
			"componentType":5126,
			"count":10812,
			"type":"VEC4"
		},
		{
			"bufferView":4,
			"componentType":5123,
			"count":61206,
			"type":"SCALAR"
		}
	],
	"bufferViews":[
		{
			"buffer":0,
			"byteLength":129744,
			"byteOffset":0,
			"target":34962
		},
		{
			"buffer":0,
			"byteLength":86496,
			"byteOffset":129744,
			"target":34962
		},
		{
			"buffer":0,
			"byteLength":129744,
			"byteOffset":216240,
			"target":34962
		},
		{
			"buffer":0,
			"byteLength":172992,
			"byteOffset":345984,
			"target":34962
		},
		{
			"buffer":0,
			"byteLength":122412,
			"byteOffset":518976,
			"target":34963
		},
		{
			"buffer":0,
			"byteLength":708575,
			"byteOffset":641388
		}
	],
	"samplers":[
		{
			"magFilter":9729,
			"minFilter":9987,
			"wrapS":33071,
			"wrapT":33071
		}
	],
	"buffers":[
		{
			"byteLength":1349964,
			"uri":"data:application/octet-stream;base64,"
		}
	]
}
